<?xml version="1.0" encoding="utf-8"?>
<!-- Generator: Adobe Illustrator 26.2.1, SVG Export Plug-In . SVG Version: 6.00 Build 0)  -->
<svg version="1.1" id="Layer_1" xmlns="http://www.w3.org/2000/svg" xmlns:xlink="http://www.w3.org/1999/xlink" x="0px" y="0px"
	 viewBox="0 0 420 63" style="enable-background:new 0 0 420 63;" xml:space="preserve">
<style type="text/css">
	.st0{fill:#676767;}
	.st1{fill:none;}
	.st2{fill:#C1282D;}
</style>
<path class="st0" d="M75.16,20.88c0.45,0,0.88,0.22,1.15,0.58L89.49,39.6c0.51,0.7,0.79,1.55,0.79,2.42v16.24
	c0,0.78-0.63,1.42-1.42,1.42h-1.75V41.72L71.97,20.88H75.16z M101.08,21.47l-7.92,10.9c-0.46,0.63-0.32,1.52,0.31,1.98l1.42,1.03
	l10.53-14.49h-3.2C101.77,20.88,101.34,21.1,101.08,21.47"/>
<path class="st0" d="M64.49,3.92v55.91h-7.24V20.04c0-0.6,0.02-1.23,0.06-1.91s0.08-1.36,0.14-2.06L38.83,50.21
	c-0.65,1.27-1.65,1.91-3,1.91h-1.17c-1.35,0-2.34-0.64-2.96-1.91L12.75,15.95c0.16,1.45,0.23,2.82,0.23,4.09v39.79H5.7V3.92h6.15
	c0.73,0,1.29,0.07,1.69,0.21c0.4,0.14,0.79,0.54,1.15,1.19L33.38,38.8c0.36,0.67,0.7,1.39,1.01,2.14c0.31,0.75,0.61,1.5,0.9,2.26
	c0.54-1.53,1.18-3.01,1.91-4.44L55.53,5.32c0.34-0.65,0.71-1.04,1.11-1.19c0.4-0.14,0.97-0.21,1.69-0.21
	C58.34,3.92,64.49,3.92,64.49,3.92z"/>
<path class="st0" d="M161.64,31.87c0,4.18-0.67,7.98-2,11.41c-1.34,3.43-3.23,6.37-5.66,8.82c-2.44,2.45-5.36,4.36-8.76,5.7
	c-3.4,1.35-7.18,2.02-11.33,2.02h-21.02V3.92h21.02c4.15,0,7.93,0.67,11.33,2.02c3.4,1.35,6.32,3.25,8.76,5.7
	c2.44,2.45,4.33,5.4,5.66,8.84C160.97,23.92,161.64,27.72,161.64,31.87 M153.15,31.87c0-3.32-0.45-6.3-1.36-8.93
	c-0.91-2.63-2.2-4.87-3.87-6.7c-1.68-1.83-3.7-3.23-6.07-4.19c-2.38-0.96-5.03-1.44-7.96-1.44h-12.69v42.51h12.69
	c2.93,0,5.59-0.48,7.96-1.44c2.38-0.96,4.4-2.35,6.07-4.18c1.67-1.83,2.96-4.05,3.87-6.68C152.7,38.21,153.15,35.22,153.15,31.87"/>
<polygon class="st0" points="194.46,55.08 194.44,59.82 170.04,59.82 170.04,20.45 194.44,20.45 194.44,25.2 175.9,25.2 
	175.9,37.67 190.82,37.67 190.82,42.25 175.9,42.25 175.9,55.08 "/>
<path class="st0" d="M234.13,59.82h-4.5c-0.51,0-0.93-0.13-1.26-0.38c-0.33-0.26-0.57-0.59-0.71-0.99l-3.48-9.13h-17.35l-3.48,9.13
	c-0.13,0.35-0.37,0.66-0.71,0.95c-0.35,0.28-0.77,0.42-1.26,0.42h-4.5l15.68-39.37h5.9L234.13,59.82z M222.59,45.16l-5.84-15.27
	c-0.42-1.04-0.84-2.36-1.26-3.95c-0.2,0.79-0.41,1.52-0.62,2.19c-0.21,0.68-0.42,1.28-0.62,1.81l-5.81,15.22H222.59z"/>
<polygon class="st0" points="261.58,54.92 261.58,59.82 239.04,59.82 239.04,20.45 244.88,20.45 244.88,54.92 "/>
<polygon class="st0" points="291.71,55.08 291.69,59.82 267.29,59.82 267.29,20.45 291.69,20.45 291.69,25.2 273.15,25.2 
	273.15,37.67 288.07,37.67 288.07,42.25 273.15,42.25 273.15,55.08 "/>
<path class="st0" d="M328.45,59.82h-5.21c-1.04,0-1.8-0.41-2.27-1.23l-9.73-13.65c-0.31-0.46-0.65-0.78-1.02-0.97
	c-0.36-0.19-0.91-0.29-1.64-0.29h-3.81v16.15h-5.84V20.45h11.35c2.54,0,4.73,0.26,6.57,0.78c1.84,0.52,3.35,1.26,4.55,2.22
	c1.2,0.96,2.08,2.12,2.66,3.47s0.86,2.87,0.86,4.55c0,1.37-0.21,2.66-0.63,3.87s-1.04,2.29-1.85,3.25c-0.81,0.96-1.8,1.79-2.97,2.48
	c-1.17,0.7-2.5,1.22-3.98,1.59c0.73,0.44,1.36,1.05,1.89,1.84L328.45,59.82z M310.08,39.42c1.5,0,2.82-0.18,3.96-0.55
	c1.14-0.37,2.09-0.88,2.86-1.55s1.34-1.46,1.73-2.38c0.38-0.92,0.57-1.94,0.57-3.06c0-2.27-0.74-3.98-2.23-5.13
	c-1.49-1.15-3.73-1.73-6.7-1.73h-5.51v14.39L310.08,39.42L310.08,39.42z"/>
<line class="st1" x1="3.81" y1="42.24" x2="324.39" y2="42.24"/>
<line class="st1" x1="3.81" y1="29.96" x2="325.06" y2="29.96"/>
<path class="st2" d="M411.17,61h2.67c1.19,0,2.16-0.97,2.16-2.16V2h-2.67c-1.19,0-2.16,0.96-2.16,2.16V61z"/>
<path class="st2" d="M341.57,30.97l27.65-28.96h-5.8c-0.59,0-1.15,0.24-1.56,0.67l-23.49,24.6V4.16c0-1.19-0.97-2.16-2.16-2.16
	h-2.67v56.84c0,1.19,0.97,2.16,2.16,2.16h2.67V34.67l23.94,25.64c0.4,0.44,0.98,0.69,1.57,0.69h5.71L341.57,30.97z"/>
<path class="st2" d="M385.91,2h-13.55v2.15c0,1.19,0.97,2.16,2.16,2.16h11.45c8.29,0,15.27,6.53,15.46,14.82
	c0.2,8.54-6.69,15.55-15.18,15.55h-8.68c-1.19,0-2.16,0.97-2.16,2.16V61h2.16c1.19,0,2.16-0.97,2.16-2.16V41h6.52
	c10.64,0,19.31-8.56,19.49-19.16C405.94,10.93,396.82,2,385.91,2"/>
<line class="st1" x1="-6.21" y1="37.1" x2="325.06" y2="37.1"/>
<line class="st1" x1="5.05" y1="49.29" x2="330.59" y2="49.29"/>
</svg>
